HIERARCHY
ROOT Hips
{
  OFFSET 0.382225 96.6805 0.598322
  CHANNELS 6 Xposition Yposition Zposition Zrotation Xrotation Yrotation
  JOINT Spine
  {
    OFFSET 10.8089 -0.851416 0
    CHANNELS 3 Zrotation Xrotation Yrotation
    JOINT Spine1
    {
      OFFSET 18.8753 3.80116 0
      CHANNELS 3 Zrotation Xrotation Yrotation
      JOINT Spine2
      {
        OFFSET 13.4073 0.420477 0
        CHANNELS 3 Zrotation Xrotation Yrotation
        JOINT LeftShoulder
        {
          OFFSET 11.8837 -2.73209 -3.78198
          CHANNELS 3 Zrotation Xrotation Yrotation
          JOINT LeftArm
          {
            OFFSET 15.7849 0 -2.35849e-005
            CHANNELS 3 Zrotation Xrotation Yrotation
            JOINT LeftForeArm
            {
              OFFSET 30.3399 0 0
              CHANNELS 3 Zrotation Xrotation Yrotation
              JOINT LeftHand
              {
                OFFSET 26.9751 0 2.45913e-005
                CHANNELS 3 Zrotation Xrotation Yrotation
                End Site
                {
                  OFFSET 8 0 0
                }
              }
            }
          }
        }
        JOINT RightShoulder
        {
          OFFSET 11.8838 -2.7321 3.782
          CHANNELS 3 Zrotation Xrotation Yrotation
          JOINT RightArm
          {
            OFFSET -15.7848 0 -1.07056e-005
            CHANNELS 3 Zrotation Xrotation Yrotation
            JOINT RightForeArm
            {
              OFFSET -30.34 1.02096e-005 -2.53607e-005
              CHANNELS 3 Zrotation Xrotation Yrotation
              JOINT RightHand
              {
                OFFSET -26.9752 2.07668e-005 0
                CHANNELS 3 Zrotation Xrotation Yrotation
                End Site
                {
                  OFFSET -8 0 0
                }
              }
            }
          }
        }
        JOINT Neck
        {
          OFFSET 16.5588 -0.355318 0
          CHANNELS 3 Zrotation Xrotation Yrotation
          JOINT Head
          {
            OFFSET 9.28361 0.364157 0
            CHANNELS 3 Zrotation Xrotation Yrotation
            End Site
            {
              OFFSET 0 0 0
            }
          }
        }
      }
    }
  }
  JOINT LeftUpLeg
  {
    OFFSET -1.44883 -0.531424 -9.00581
    CHANNELS 3 Zrotation Xrotation Yrotation
    JOINT LeftLeg
    {
      OFFSET -42.572 0.0788889 -0.011964
      CHANNELS 3 Zrotation Xrotation Yrotation
      JOINT LeftFoot
      {
        OFFSET -40.1967 0 0
        CHANNELS 3 Zrotation Xrotation Yrotation
				JOINT LeftToe
        {
          OFFSET -10.4538 -16.5779 0.0801563
          CHANNELS 3 Zrotation Xrotation Yrotation
          End Site
          {
            OFFSET -1.0 -1.0 0.0
          }
        }
      }
    }
  }
  JOINT RightUpLeg
  {
    OFFSET -1.44865 -0.531427 9.0058
    CHANNELS 3 Zrotation Xrotation Yrotation
    JOINT RightLeg
    {
      OFFSET 42.5723 -3.24776e-005 0
      CHANNELS 3 Zrotation Xrotation Yrotation
      JOINT RightFoot
      {
        OFFSET 40.1968 0 -1.14003e-005
        CHANNELS 3 Zrotation Xrotation Yrotation
				JOINT RightToe
        {
          OFFSET 10.4538 16.5778 -0.0801573
          CHANNELS 3 Zrotation Xrotation Yrotation
          End Site
          {
            OFFSET -1.0 -1.0 0.0
          }
        }
      }
    }
  }
}
MOTION
Frames:	8
Frame Time:	0.0333333
130.433 72.1775 -31.7551 -31.7956 -66.9837 -134.138 -33.7516 13.5401 0.435998 16.4642 -0.121976 -0.228882 2.7794 1.93418e-006 1.65929e-005 -3.91601 21.3932 87.8069 -46.433 41.0851 102.614 -54.2438 -2.32385 -15.0896 -160.139 -73.8003 -147.345 -178.09 1.26572 81.9171 -66.8692 -13.3945 33.7588 -34.8681 -8.61834 -2.25524 -0.380738 -75.1879 13.1514 -23.508 4.63459e-006 -5.90926e-006 59.1277 -74.2992 20.7671 60.0507 4.95013 -26.4933 -70.8621 -2.01328 -3.75835 23.4394 1.52619 18.7701 -90 0 0 -118.661 -25.6343 -28.4938 -73.6693 0.365248 -5.77858 17.6214 9.81847 12.7374 -90 0 0
130.764 72.3028 -29.9251 -30.4586 -72.2011 -130.862 -31.5282 15.5159 2.50336 15.5782 -0.0758344 -0.145009 2.7794 1.93418e-006 1.65929e-005 -4.09715 20.622 88.8378 -46.1501 39.6445 109.808 -52.016 -3.28598 -14.419 -160.647 -70.2329 -148.129 -177.843 0.963346 79.8489 -71.5525 -20.1718 37.0465 -40.385 -8.82199 -2.71576 1.31226 -71.2639 16.0754 -23.508 4.63459e-006 -5.90926e-006 60.7129 -77.426 26.379 57.4209 4.52083 -27.208 -70.9144 -2.0242 -3.76226 21.9197 0.284616 19.2872 -90 0 0 -126.912 -22.2384 -31.6675 -72.8739 0.231581 -5.74858 20.4429 10.8819 13.5291 -90 0 0
131.438 72.4645 -28.4751 -29.127 -74.9025 -129.638 -29.6091 16.8927 6.46056 15.0749 -0.0502076 -0.0970396 2.7794 1.93418e-006 1.65929e-005 -4.34309 17.3222 92.0646 -39.8914 40.1377 109.982 -49.4908 -4.33725 -13.6186 -161.611 -63.0117 -148.416 -177.531 -1.57038 76.9183 -73.4266 -29.9576 38.3168 -47.9777 -9.02817 -3.37808 0.156331 -66.8433 15.4817 -23.508 4.63459e-006 -5.90926e-006 67.1046 -77.7598 35.2469 56.2766 6.53029 -27.7627 -70.9548 -2.04527 -3.76261 21.2832 -1.6483 19.5953 -90 0 0 -131.06 -20.3722 -34.6579 -72.216 0.126957 -5.71771 21.5074 10.3096 13.4866 -90 0 0
131.898 72.5721 -27.2011 -22.0933 -77.5395 -122.464 -28.6316 16.7475 9.17347 15.8615 -0.0904395 -0.171905 2.7794 1.93418e-006 1.65929e-005 -4.65413 15.0421 96.8438 -30.4362 39.76 101.31 -48.7054 -4.65548 -13.3613 -157.223 -51.1317 -146.379 -177.429 -3.57098 74.1469 -72.8976 -41.486 39.186 -56.327 -9.15285 -4.13084 -2.92624 -70.7832 13.1066 -23.508 4.63459e-006 -5.90926e-006 74.5567 -77.3285 43.6706 56.0094 7.59771 -27.9631 -71.0079 -2.05807 -3.76287 20.3032 -3.45126 19.6676 -90 0 0 -134.998 -18.2475 -37.0722 -71.7372 0.0645209 -5.69935 22.1923 11.6064 13.4098 -90 0 0
132.121 72.5154 -25.7951 -0.610788 -80.0916 -100.236 -27.2509 14.9274 10.2684 17.1736 -0.159841 -0.295527 2.7794 1.93418e-006 1.65929e-005 -4.59524 13.8788 98.7691 -18.9312 33.7823 89.0834 -47.7973 -5.01809 -13.0589 -158.621 -47.2607 -148.087 -177.18 -3.48276 70.5731 -65.8069 -52.3078 46.0881 -65.8678 -9.16151 -5.00269 -13.9839 -78.2363 3.81692 -23.508 4.63459e-006 -5.90926e-006 73.2158 -78.4208 43.4791 56.2794 7.01901 -27.5732 -71.1016 -2.07922 -3.76656 18.991 -5.43893 19.9344 -90 0 0 -139.832 -14.325 -39.7559 -71.0032 -0.0704066 -5.66414 23.2927 13.9767 15.0716 -90 0 0
132.266 72.5401 -24.1182 32.388 -80.8881 -66.6019 -25.846 11.9803 11.2941 18.6017 -0.238569 -0.42824 2.7794 1.93418e-006 1.65929e-005 -4.124 12.4346 97.8626 -9.02603 24.677 79.6908 -50.9697 -3.72674 -14.0924 -158.059 -48.187 -147.148 -176.805 -2.15015 68.5985 -50.2515 -55.3201 58.6693 -75.3512 -9.02848 -5.85891 -33.3448 -78.6075 -13.3753 -23.508 4.63459e-006 -5.90926e-006 62.6734 -81.7257 37.1401 55.8976 6.75839 -27.4193 -70.72 -2.16513 -3.74853 17.3621 -8.11949 20.3927 -90 0 0 -146.361 -10.2832 -41.4825 -69.8006 -0.259503 -5.60168 24.8858 17.1993 15.761 -90 0 0
132.2 73.1121 -22.1504 55.8032 -80.5464 -42.3013 -23.7087 8.4989 12.3335 18.9777 -0.259864 -0.462864 2.7794 1.93418e-006 1.65929e-005 -3.83639 11.8976 95.9502 -3.04522 15.648 71.5238 -58.3666 -0.462897 -16.2378 -158.888 -49.9115 -147.951 -176.835 0.0775691 71.3394 -41.6441 -49.8258 61.0588 -74.4769 -9.04668 -5.781 -36.8757 -77.7464 -17.0052 -23.508 4.63459e-006 -5.90926e-006 39.271 -84.3484 19.0779 54.6283 8.05229 -29.6127 -69.1438 -2.38466 -3.67432 14.7805 -10.7404 20.8891 -90 0 0 -152.669 -7.46471 -40.2061 -68.3829 -0.432698 -5.52079 25.8831 21.233 13.2098 -90 0 0
131.96 74.5157 -20.0405 68.6631 -82.0526 -28.9938 -21.5277 4.90683 14.4747 18.579 -0.237305 -0.426154 2.7794 1.93418e-006 1.65929e-005 -3.41179 12.1101 90.6737 0.550997 8.49826 64.4024 -64.7715 2.6126 -17.7649 -160.511 -54.1609 -149.71 -177.254 1.91007 75.2663 -41.4439 -38.57 55.4862 -64.105 -9.17027 -4.8419 -16.2263 -73.2881 -4.65828 -23.508 4.63459e-006 -5.90926e-006 12.5355 -83.2417 -3.95155 51.4248 11.4668 -33.2993 -65.6877 -2.7818 -3.49574 12.2962 -12.8722 21.2977 -90 0 0 -157.145 -5.5949 -38.6327 -65.7659 -0.784151 -5.34845 25.4427 23.08 10.8094 -90 0 0
